#!OML:ASF F:\VICON\USERDATA\INSTALL\rory3\rory3.ASF
:FULLY-SPECIFIED
:DEGREES
32
root -0.500293 18.8938 -12.9329 2.35765 -8.2019 0.771952
lowerback 3.39932 0.622759 -1.84439
upperback -1.62641 0.689085 -1.49732
thorax -3.5848 0.367339 -0.552268
lowerneck -10.0955 -6.35386 -10.0817
upperneck 16.4246 -8.49907 8.28111
head 7.49411 -4.01922 3.52305
rclavicle -1.87292e-014 -2.78299e-015
rhumerus -37.7819 0.259358 -81.7249
rradius 35.4901
rwrist 13.5344
rhand -19.011 2.60218
rfingers 7.12502
rthumb 7.29454 -27.2521
lclavicle -1.87292e-014 -2.78299e-015
lhumerus -38.5946 14.4459 72.7218
lradius 30.2258
lwrist -0.397831
lhand -13.9541 24.8488
lfingers 7.12502
lthumb 12.1734 54.4746
rfemur -3.26427 22.1105 17.6507
rtibia 15.7448
rfoot -12.8909 -18.5239
rtoes -5.69766
lfemur -0.876994 -7.09694 -20.5363
ltibia 12.5989
lfoot -13.1752 17.323
ltoes -3.19
33
root -0.499876 18.8941 -12.9296 2.32715 -8.19781 0.845751
lowerback 3.38162 0.612156 -1.92739
upperback -1.60838 0.671335 -1.51114
thorax -3.55698 0.360072 -0.518457
lowerneck -10.0888 -6.37789 -10.0987
upperneck 16.429 -8.53116 8.28507
head 7.49854 -4.03543 3.5236
rclavicle -6.45429e-015 -2.78299e-015
rhumerus -37.8047 0.27699 -81.7571
rradius 35.4407
rwrist 13.5399
rhand -19.0647 2.59945
rfingers 7.12502
rthumb 7.24268 -27.2566
lclavicle -6.45429e-015 -2.78299e-015
lhumerus -38.6876 14.516 72.6958
lradius 30.2174
lwrist -0.455396
lhand -13.8871 25.0875
lfingers 7.12502
lthumb 12.2379 54.7094
rfemur -3.20788 22.0954 17.5775
rtibia 15.7491
rfoot -12.9969 -18.4701
rtoes -5.36567
lfemur -0.833234 -7.09783 -20.6331
ltibia 12.5914
lfoot -13.1601 17.3422
ltoes -3.48153
34
root -0.49753 18.8947 -12.9289 2.32088 -8.20357 0.873736
lowerback 3.37942 0.610056 -1.9345
upperback -1.60744 0.667766 -1.52589
thorax -3.55468 0.358259 -0.5294
lowerneck -10.0398 -6.40133 -10.0791
upperneck 16.3965 -8.56431 8.25773
head 7.48044 -4.05372 3.50875
rclavicle -1.63438e-014 7.95139e-015
rhumerus -37.8676 0.307383 -81.7982
rradius 35.415
rwrist 13.5368
rhand -19.1831 2.63215
rfingers 7.12502
rthumb 7.12845 -27.2278
lclavicle -1.63438e-014 7.95139e-015
lhumerus -38.7883 14.5079 72.6777
lradius 30.1799
lwrist -0.407742
lhand -13.6929 25.0696
lfingers 7.12502
lthumb 12.4252 54.6803
rfemur -3.22751 22.0542 17.5328
rtibia 15.7673
rfoot -12.9842 -18.4465
rtoes -5.41215
lfemur -0.795146 -7.1753 -20.6789
ltibia 12.5514
lfoot -13.2064 17.3964
ltoes -3.14206
35
root -0.494838 18.8951 -12.9274 2.34847 -8.18582 0.935362
lowerback 3.31185 0.584439 -1.97537
upperback -1.60141 0.633402 -1.53941
thorax -3.51042 0.341691 -0.517329
lowerneck -10.0436 -6.39019 -10.1216
upperneck 16.4129 -8.54876 8.29169
head 7.48834 -4.04596 3.52863
rclavicle 4.00675e-015 -3.97569e-015
rhumerus -37.8616 0.319842 -81.8142
rradius 35.3329
rwrist 13.6125
rhand -19.2332 2.56238
rfingers 7.12502
rthumb 7.08007 -27.2992
lclavicle 4.00675e-015 -3.97569e-015
lhumerus -38.8935 14.5991 72.6176
lradius 30.1108
lwrist -0.523892
lhand -13.6061 24.4583
lfingers 7.12502
lthumb 12.5089 54.0639
rfemur -3.2863 22.006 17.4401
rtibia 15.7925
rfoot -12.974 -18.4434
rtoes -5.62199
lfemur -0.80121 -7.18429 -20.7543
ltibia 12.5043
lfoot -13.1288 17.4179
ltoes -3.34244
36
root -0.492306 18.8953 -12.9263 2.35568 -8.20275 0.967121
lowerback 3.29159 0.574453 -2.00188
upperback -1.5977 0.619493 -1.54062
thorax -3.49537 0.335269 -0.502568
lowerneck -10.0575 -6.39102 -10.1485
upperneck 16.4764 -8.55066 8.30399
head 7.51351 -4.04701 3.53665
rclavicle -1.72073e-015 3.45885e-014
rhumerus -37.8577 0.295592 -81.8032
rradius 35.2435
rwrist 13.7241
rhand -19.0812 2.48196
rfingers 7.12502
rthumb 7.22673 -27.3746
lclavicle -1.72073e-015 3.45885e-014
lhumerus -38.9948 14.7341 72.5404
lradius 30.0048
lwrist -0.694856
lhand -13.6584 23.9341
lfingers 7.12502
lthumb 12.4585 53.5427
rfemur -3.30262 21.9835 17.3843
rtibia 15.79
rfoot -12.9768 -18.3867
rtoes -5.61843
lfemur -0.822841 -7.22532 -20.8042
ltibia 12.5259
lfoot -13.1526 17.4927
ltoes -3.74144
37
root -0.491863 18.8952 -12.9268 2.40142 -8.232 0.895615
lowerback 3.32454 0.591155 -1.94097
upperback -1.65629 0.642709 -1.52701
thorax -3.57413 0.346193 -0.525147
lowerneck -9.94254 -6.40026 -10.1319
upperneck 16.4567 -8.57681 8.30711
head 7.48856 -4.06144 3.53502
rclavicle 2.77056e-014 5.96354e-015
rhumerus -37.99 0.265552 -81.7991
rradius 35.1917
rwrist 13.7232
rhand -19.0321 2.52195
rfingers 7.12502
rthumb 7.27418 -27.333
lclavicle 2.77056e-014 5.96354e-015
lhumerus -39.1197 14.6558 72.5265
lradius 29.9293
lwrist -0.733324
lhand -13.6971 24.2043
lfingers 7.12502
lthumb 12.4212 53.8152
rfemur -3.34371 22.0371 17.4485
rtibia 15.7635
rfoot -12.9222 -18.4258
rtoes -5.71896
lfemur -0.910162 -7.20587 -20.7199
ltibia 12.6011
lfoot -13.2202 17.4961
ltoes -3.74166
38
root -0.490665 18.8945 -12.9281 2.45374 -8.24535 0.825203
lowerback 3.35791 0.60068 -1.85892
upperback -1.72881 0.657151 -1.51372
thorax -3.66722 0.352277 -0.559523
lowerneck -9.76966 -6.41559 -10.1588
upperneck 16.4449 -8.61152 8.31823
head 7.45914 -4.08351 3.54372
rclavicle -2.08103e-014 -1.19271e-014
rhumerus -38.1163 0.1171 -81.7319
rradius 35.0657
rwrist 13.8742
rhand -19.0297 2.72911
rfingers 7.12502
rthumb 7.27646 -27.1258
lclavicle -2.08103e-014 -1.19271e-014
lhumerus -39.2405 14.6531 72.4788
lradius 29.7998
lwrist -0.835605
lhand -13.6655 24.3683
lfingers 7.12502
lthumb 12.4516 53.9773
rfemur -3.37854 22.0968 17.5055
rtibia 15.7174
rfoot -12.8872 -18.4707
rtoes -5.70077
lfemur -1.0126 -7.22991 -20.6412
ltibia 12.7015
lfoot -13.2945 17.4849
ltoes -3.71025
39
root -0.490133 18.8956 -12.9293 2.48292 -8.25238 0.72007
lowerback 3.35925 0.598424 -1.75627
upperback -1.72684 0.660381 -1.48102
thorax -3.66499 0.351822 -0.583512
lowerneck -9.83494 -6.42043 -10.141
upperneck 16.5409 -8.61232 8.26971
head 7.4992 -4.08484 3.5231
rclavicle 1.02498e-014 -7.95139e-016
rhumerus -38.0835 -0.0163311 -81.6755
rradius 34.8917
rwrist 14.0947
rhand -19.0543 3.06606
rfingers 7.12502
rthumb 7.25278 -26.7896
lclavicle 1.02498e-014 -7.95139e-016
lhumerus -39.229 14.758 72.4326
lradius 29.6144
lwrist -0.936452
lhand -13.7193 24.225
lfingers 7.12502
lthumb 12.3997 53.8372
rfemur -3.38572 22.154 17.6155
rtibia 15.6764
rfoot -12.8453 -18.5365
rtoes -5.63198
lfemur -1.08646 -7.17849 -20.5148
ltibia 12.808
lfoot -13.2978 17.4174
ltoes -3.60909
40
root -0.48965 18.8967 -12.9298 2.5003 -8.26508 0.687768
lowerback 3.3842 0.588503 -1.74164
upperback -1.72266 0.647652 -1.46936
thorax -3.67468 0.345313 -0.579129
lowerneck -9.99337 -6.4159 -10.0905
upperneck 16.6582 -8.59695 8.2139
head 7.55939 -4.07453 3.49415
rclavicle 2.17421e-015 1.86858e-014
rhumerus -38.0926 0.0174435 -81.7033
rradius 34.8624
rwrist 14.1497
rhand -18.9928 3.06393
rfingers 7.12502
rthumb 7.31206 -26.7897
lclavicle 2.17421e-015 1.86858e-014
lhumerus -39.2465 14.836 72.3886
lradius 29.5154
lwrist -0.873646
lhand -13.7383 24.0802
lfingers 7.12502
lthumb 12.3815 53.6936
rfemur -3.39399 22.1932 17.6442
rtibia 15.6499
rfoot -12.8593 -18.5637
rtoes -5.6799
lfemur -1.14424 -7.08282 -20.4661
ltibia 12.8848
lfoot -13.3525 17.3295
ltoes -3.43857
41
root -0.488001 18.8962 -12.9309 2.48393 -8.25521 0.722957
lowerback 3.45199 0.572741 -1.79209
upperback -1.73058 0.622013 -1.4673
thorax -3.72176 0.334025 -0.547986
lowerneck -10.0106 -6.4 -10.0909
upperneck 16.6668 -8.57713 8.23081
head 7.56403 -4.06324 3.5017
rclavicle 3.16937e-014 0
rhumerus -38.1024 -0.00904892 -81.6902
rradius 34.7761
rwrist 14.2661
rhand -18.9468 3.08259
rfingers 7.12502
rthumb 7.35647 -26.7695
lclavicle 3.16937e-014 0
lhumerus -39.3192 14.9714 72.3296
lradius 29.4157
lwrist -0.993144
lhand -13.6569 24.1729
lfingers 7.12502
lthumb 12.4599 53.7815
rfemur -3.37251 22.2202 17.6081
rtibia 15.6355
rfoot -12.8501 -18.5792
rtoes -5.58961
lfemur -1.15597 -7.03042 -20.5055
ltibia 12.9239
lfoot -13.3658 17.2651
ltoes -3.12335
42
root -0.484792 18.8957 -12.9306 2.46495 -8.27049 0.754277
lowerback 3.45132 0.573481 -1.79945
upperback -1.6998 0.623031 -1.47637
thorax -3.68951 0.334356 -0.552951
lowerneck -10.0633 -6.39833 -10.1208
upperneck 16.6905 -8.58069 8.30587
head 7.58616 -4.05905 3.52977
rclavicle -1.64619e-015 2.06736e-014
rhumerus -38.0266 -0.136834 -81.6441
rradius 34.6143
rwrist 14.3996
rhand -19.0194 3.10528
rfingers 7.12502
rthumb 7.28638 -26.7493
lclavicle -1.64619e-015 2.06736e-014
lhumerus -39.3321 15.1285 72.2688
lradius 29.2653
lwrist -1.12261
lhand -13.6852 24.1799
lfingers 7.12502
lthumb 12.4327 53.7901
rfemur -3.359 22.1908 17.5631
rtibia 15.6462
rfoot -12.8679 -18.5318
rtoes -5.50197
lfemur -1.14078 -7.02479 -20.5562
ltibia 12.926
lfoot -13.3561 17.2389
ltoes -2.85678
43
root -0.482078 18.8959 -12.9301 2.47474 -8.29841 0.782452
lowerback 3.40093 0.577163 -1.83663
upperback -1.65415 0.629033 -1.46483
thorax -3.61438 0.337908 -0.519544
lowerneck -10.1815 -6.39834 -10.1691
upperneck 16.751 -8.57436 8.35468
head 7.63083 -4.05153 3.55164
rclavicle -5.66536e-015 7.55382e-015
rhumerus -37.9422 -0.205932 -81.6078
rradius 34.4846
rwrist 14.5426
rhand -19.0522 3.19321
rfingers 7.12502
rthumb 7.2548 -26.6624
lclavicle -5.66536e-015 7.55382e-015
lhumerus -39.2948 15.2708 72.2539
lradius 29.0902
lwrist -1.24879
lhand -13.7686 24.3062
lfingers 7.12502
lthumb 12.3522 53.9213
rfemur -3.40098 22.1414 17.5031
rtibia 15.6738
rfoot -12.8534 -18.4954
rtoes -5.71412
lfemur -1.14865 -7.00151 -20.5995
ltibia 12.9148
lfoot -13.3487 17.2489
ltoes -3.01051
44
root -0.480391 18.8944 -12.9317 2.45078 -8.32784 0.7476
lowerback 3.43286 0.578076 -1.83033
upperback -1.62528 0.631436 -1.43172
thorax -3.60283 0.339231 -0.489218
lowerneck -10.2549 -6.40452 -10.1709
upperneck 16.8023 -8.57107 8.31398
head 7.65877 -4.05135 3.53693
rclavicle 1.62444e-014 3.18055e-015
rhumerus -37.957 -0.157149 -81.615
rradius 34.4498
rwrist 14.512
rhand -19.0476 3.39366
rfingers 7.12502
rthumb 7.2592 -26.4618
lclavicle 1.62444e-014 3.18055e-015
lhumerus -39.2811 15.4282 72.214
lradius 28.9043
lwrist -1.27953
lhand -13.8326 24.3949
lfingers 7.12502
lthumb 12.2905 54.0137
rfemur -3.39225 22.1536 17.5423
rtibia 15.6981
rfoot -12.862 -18.5114
rtoes -5.80705
lfemur -1.11639 -6.98096 -20.5747
ltibia 12.8998
lfoot -13.242 17.31
ltoes -3.34748
45
root -0.47831 18.8955 -12.9336 2.44982 -8.33509 0.746704
lowerback 3.45842 0.584225 -1.82622
upperback -1.60911 0.639495 -1.43083
thorax -3.60054 0.343091 -0.491273
lowerneck -10.3361 -6.42911 -10.1604
upperneck 16.8608 -8.59857 8.29035
head 7.69372 -4.06344 3.52212
rclavicle 2.70285e-014 -7.95139e-015
rhumerus -38.0098 -0.13854 -81.6216
rradius 34.4889
rwrist 14.4753
rhand -19.0167 3.53765
rfingers 7.12502
rthumb 7.28907 -26.3168
lclavicle 2.70285e-014 -7.95139e-015
lhumerus -39.2826 15.646 72.0957
lradius 28.7073
lwrist -1.44145
lhand -13.6292 24.089
lfingers 7.12502
lthumb 12.4867 53.6959
rfemur -3.42464 22.1624 17.5348
rtibia 15.7451
rfoot -12.8771 -18.4729
rtoes -5.70901
lfemur -1.10301 -6.94201 -20.5723
ltibia 12.8674
lfoot -13.1994 17.2687
ltoes -3.21832
